<svg width="32" height="32" viewBox="0 0 32 32" fill="none" xmlns="http://www.w3.org/2000/svg">
<path d="M21.1997 4.7998C25.1591 4.7998 28.3408 7.84285 28.646 11.7734L28.6665 12.1572V12.4004C28.6664 14.5895 27.8178 16.5044 26.3931 17.8105L26.1333 18.0479V18.1455C26.1082 18.1665 26.0814 18.188 26.0542 18.2109C25.8469 18.3858 25.5651 18.6286 25.229 18.9209C24.5559 19.5062 23.6536 20.2995 22.6704 21.166C20.7041 22.899 18.4127 24.9249 16.9497 26.1885C16.4475 26.6034 15.6841 26.6038 15.1821 26.1885C13.7169 24.923 11.3896 22.8944 9.40967 21.1641C8.41831 20.2977 7.5141 19.5067 6.8501 18.9238C6.51826 18.6326 6.24677 18.3937 6.0542 18.2236C6.03493 18.2066 6.01669 18.19 5.99951 18.1748V18.0684L5.76514 17.834C4.30704 16.3757 3.46642 14.4429 3.46631 12.4004V12.1572C3.58665 8.19227 6.96296 4.93363 10.9331 4.93359C11.5708 4.93359 12.3742 5.15149 13.1538 5.57129C13.9091 5.97797 14.5825 6.54387 15.0298 7.19141C15.4692 8.14914 16.8416 8.13545 17.2544 7.15039C17.6321 6.46658 18.2925 5.87411 19.0562 5.44824C19.8351 5.01387 20.6349 4.79984 21.1997 4.7998Z" fill="#FF68CC" stroke="#FF68CC" stroke-width="1.6"/>
</svg>
