<svg width="175" height="138" viewBox="0 0 175 138" fill="none" xmlns="http://www.w3.org/2000/svg">
<path d="M69.0461 29.337C72.226 37.552 66.5635 47.4013 59.3343 50.1996C52.1051 52.9979 41.5844 49.4129 38.4045 41.1979C35.2246 32.9828 39.346 20.8588 46.5752 18.0605C56.2149 14.3292 65.8663 21.122 69.0461 29.337Z" fill="#D1D5DB"/>
<path d="M73.1223 28.9826C71.4082 37.6232 78.6859 46.3472 86.2896 47.8556C93.8933 49.364 103.637 44.0167 105.351 35.3761C107.065 26.7355 100.913 15.505 93.3093 13.9966C83.1703 11.9852 74.8364 20.342 73.1223 28.9826Z" fill="#D1D5DB"/>
<path d="M147.865 91.9785C147.865 121.048 119.663 131.854 81.194 131.854C42.7246 131.854 15.1606 121.048 15.1606 91.9785C15.1606 58.1644 42.7246 28.1782 81.194 28.1782C119.663 28.1782 147.865 55.6124 147.865 91.9785Z" fill="#F3F4F6"/>
<path d="M129.761 91.6437C129.761 112.954 110.003 120.875 83.051 120.875C56.0991 120.875 36.7876 112.954 36.7876 91.6437C36.7876 66.8553 56.0991 44.873 83.051 44.873C110.003 44.873 129.761 64.9844 129.761 91.6437Z" fill="#F9FAFB"/>
<path d="M80.5077 88.6707C80.5077 95.7179 76.2105 103.449 70.2053 103.449C64.2002 103.449 54.4995 97.7068 54.4995 87.1797C54.4995 77.2907 64.9791 73.7736 75.8081 75.5795C82.4452 76.6863 80.5077 81.6235 80.5077 88.6707Z" fill="#D1D5DB"/>
<path d="M75.4853 87.9589C75.4853 89.016 75.1832 89.8729 73.6731 89.8729C72.1629 89.8729 71.8608 89.016 71.8608 87.9589C71.8608 86.9019 72.4649 86.0449 73.6731 86.0449C74.8812 86.0449 75.4853 86.9019 75.4853 87.9589Z" fill="#F3F4F6"/>
<path d="M98.2785 88.6707C98.2785 95.7179 102.261 103.449 107.827 103.449C113.393 103.449 122.385 97.7068 122.385 87.1797C122.385 77.2907 112.671 73.7736 102.634 75.5795C96.4827 76.6863 98.2785 81.6235 98.2785 88.6707Z" fill="#D1D5DB"/>
<path d="M102.935 87.9589C102.935 89.016 103.215 89.8729 104.614 89.8729C106.014 89.8729 106.294 89.016 106.294 87.9589C106.294 86.9019 105.734 86.0449 104.614 86.0449C103.494 86.0449 102.935 86.9019 102.935 87.9589Z" fill="#F3F4F6"/>
<path d="M82.7133 98.9352C82.367 98.4315 81.6779 98.3039 81.1742 98.6502C80.6705 98.9965 80.5429 99.6856 80.8892 100.189L82.7133 98.9352ZM89.918 97.3486L90.9647 96.9888C90.8111 96.5419 90.3906 96.2418 89.918 96.2418C89.4454 96.2418 89.025 96.5419 88.8713 96.9888L89.918 97.3486ZM98.9469 100.189C99.2932 99.6856 99.1656 98.9965 98.6618 98.6502C98.1581 98.3039 97.469 98.4315 97.1227 98.9352L98.9469 100.189ZM80.8892 100.189C81.222 100.673 81.8311 101.328 82.6493 101.869C83.4745 102.415 84.5717 102.883 85.8597 102.883V100.669C85.1184 100.669 84.4401 100.399 83.8702 100.023C83.2934 99.6412 82.8878 99.1891 82.7133 98.9352L80.8892 100.189ZM85.8597 102.883C87.4195 102.883 88.5948 101.772 89.3424 100.783C90.1271 99.7456 90.6832 98.5274 90.9647 97.7084L88.8713 96.9888C88.6455 97.6457 88.187 98.6411 87.5767 99.4481C86.9292 100.304 86.329 100.669 85.8597 100.669V102.883ZM88.8713 97.7084C89.1528 98.5274 89.7089 99.7456 90.4937 100.783C91.2413 101.772 92.4166 102.883 93.9764 102.883V100.669C93.5071 100.669 92.9068 100.304 92.2593 99.4481C91.649 98.6411 91.1905 97.6457 90.9647 96.9888L88.8713 97.7084ZM93.9764 102.883C95.2643 102.883 96.3616 102.415 97.1867 101.869C98.005 101.328 98.6141 100.673 98.9469 100.189L97.1227 98.9352C96.9482 99.1891 96.5427 99.6412 95.9659 100.023C95.396 100.399 94.7177 100.669 93.9764 100.669V102.883Z" fill="#D1D5DB"/>
<path d="M96.6754 96.2112C96.6754 97.2488 91.9336 98.5727 90.4288 98.9667C90.1314 99.0445 89.8213 99.0445 89.5239 98.9667C88.0192 98.5727 83.2773 97.2488 83.2773 96.2112C83.2773 94.9779 86.9813 93.6592 89.9764 93.6592C92.9714 93.6592 96.6754 94.9779 96.6754 96.2112Z" fill="#D1D5DB"/>
<path d="M90.9593 62.3508C62.4856 64.141 55.5407 55.0518 54.499 51.2167L70.4721 42.3095L88.5287 38.9692L113.53 51.959C112.025 55.0518 108.469 61.2499 90.9593 62.3508Z" fill="#D1D5DB"/>
<path fill-rule="evenodd" clip-rule="evenodd" d="M84.6479 131.946C121.126 131.946 147.868 121.14 147.868 92.0703C147.868 55.7042 121.126 28.27 84.6479 28.27C48.1699 28.27 22.0327 58.2562 22.0327 92.0703C22.0327 121.14 48.1699 131.946 84.6479 131.946ZM83.2142 120.781C110.047 120.781 129.717 112.868 129.717 91.58C129.717 64.9488 110.047 44.8586 83.2142 44.8586C56.3817 44.8586 37.1558 66.8177 37.1558 91.58C37.1558 112.868 56.3817 120.781 83.2142 120.781Z" fill="#F3F4F6"/>
<path fill-rule="evenodd" clip-rule="evenodd" d="M7.1065 68.1727C11.1518 63.6431 18.4429 64.3945 21.4795 69.6539L25.9266 77.3565C28.9631 82.616 25.9683 89.3059 20.0229 90.5445L18.0892 90.9473C17.9785 90.9703 17.8678 90.9912 17.757 91.01C17.7153 91.1249 17.6623 91.2368 17.6001 91.3436C15.8394 94.3704 15.0011 101.343 23.6765 109.414C32.1296 117.277 39.4369 117.849 42.8006 117.009C43.0392 116.95 43.2871 116.933 43.5262 116.963L43.9665 116.09C46.7016 110.668 53.9387 109.506 58.233 113.801L64.5222 120.09C68.8165 124.384 67.6552 131.621 62.2329 134.356L61.8262 134.562C61.7148 134.738 61.5559 134.891 61.3494 135.004C50.6399 140.816 26.5652 138.006 13.3966 119.694C-3.0857 96.7729 -1.42524 77.2846 5.07355 70.331C5.18433 70.2124 5.31047 70.1214 5.44543 70.0567C5.5559 69.9171 5.67104 69.78 5.79084 69.6459L7.1065 68.1727Z" fill="#D1D5DB"/>
<path d="M134.65 26.4412C136.418 22.4225 137.988 21.6465 140.407 21.2836C142.277 20.9964 143.816 20.5631 144.458 19.1018C145.101 17.6405 144.348 16.1992 142.92 15.5711C141.525 14.9575 139.791 15.3842 139.028 17.0302L133.747 14.7075C135.961 9.85448 140.545 9.25478 144.896 11.1685C149.712 13.2867 152.176 17.1454 150.321 21.3633C149.094 24.1531 146.84 25.2228 144.03 25.5725C141.769 25.8465 140.468 26.463 139.533 28.5886L139.328 29.0536L134.446 26.9062L134.65 26.4412ZM133.596 35.6884C131.935 34.958 131.158 33.0306 131.936 31.3514C132.618 29.7094 134.564 28.9798 136.225 29.7102C137.819 30.4114 138.63 32.3534 137.947 33.9955C137.169 35.6747 135.19 36.3896 133.596 35.6884Z" fill="#D1D5DB"/>
<path d="M150.617 38.1126C152.952 35.7029 154.283 35.5642 156.113 35.9472C157.53 36.2387 158.747 36.3372 159.596 35.4609C160.445 34.5846 160.289 33.3516 159.432 32.5218C158.596 31.7113 157.24 31.5561 156.255 32.5326L153.089 29.4643C155.965 26.5754 159.41 27.3644 162.019 29.8923C164.907 32.6905 165.647 36.1108 163.196 38.64C161.575 40.3129 159.675 40.4801 157.569 39.9838C155.876 39.579 154.779 39.6748 153.544 40.9494L153.274 41.2282L150.347 38.3914L150.617 38.1126ZM147.403 44.4585C146.407 43.4936 146.362 41.9058 147.366 40.9094C148.292 39.9143 149.88 39.9089 150.876 40.8737C151.832 41.8 151.897 43.4071 150.971 44.4023C149.967 45.3987 148.359 45.3848 147.403 44.4585Z" fill="#D1D5DB"/>
</svg>
